<svg id="_1" data-name="1" xmlns="http://www.w3.org/2000/svg" xmlns:xlink="http://www.w3.org/1999/xlink" width="338.8mm" height="131.9mm" viewBox="0 0 960.4 373.9">
  <defs>
    <style>
      .cls-1 {
        opacity: 0.85;
        fill: url(#GradientFill_1);
      }

      .cls-2 {
        fill: #7dd1e5;
      }

      .cls-2, .cls-3, .cls-4, .cls-5 {
        fill-rule: evenodd;
      }

      .cls-3 {
        fill: #eaeff4;
      }

      .cls-4, .cls-6, .cls-7 {
        fill: #fff;
      }

      .cls-5 {
        fill: #41a9c7;
      }

      .cls-6, .cls-8 {
        font-size: 36px;
        font-family: OpenSans-SemiBold, Open Sans;
        font-weight: 700;
      }

      .cls-8 {
        fill: #50bed7;
      }
    </style>
    <linearGradient id="GradientFill_1" data-name="GradientFill 1" y1="152.7" x2="960.36" y2="152.7" gradientUnits="userSpaceOnUse">
      <stop offset="0" stop-color="#50bcbc"/>
      <stop offset="0.17" stop-color="#2ab1b1"/>
      <stop offset="0.33" stop-color="#00a5a6"/>
      <stop offset="0.5" stop-color="#009798"/>
      <stop offset="0.61" stop-color="#0098a0"/>
      <stop offset="0.72" stop-color="#0097a7"/>
      <stop offset="0.83" stop-color="#0098b0"/>
      <stop offset="0.89" stop-color="#0098b9"/>
      <stop offset="0.94" stop-color="#0098c2"/>
      <stop offset="1" stop-color="#0099cd"/>
    </linearGradient>
  </defs>
  <title>Одинаковые требования</title>
  <rect class="cls-1" width="960.4" height="305.4"/>
  <polygon class="cls-2" points="384.8 262.2 440.7 243.8 496.7 263 488.7 320.7 464.7 351.9 441.5 369.5 411.1 348.7 390.4 307.9 384.8 262.2"/>
  <path class="cls-3" d="M549.8,394.6h0V390l-.3-4.6h-4.6l-4.6-.4-5.1-.4-5-.8-5-1-5-1.3-5.1-1.3-5-1.6-5.1-2-5-2-5-2.4-4.9-2.5-4.9,2.5-5,2.4-5,2-5,2-5.1,1.6-5.1,1.3-5,1.3-5,1-5,.8-5,.4-4.7.4h-4.6l-.3,4.6v14.7l.3,4.3.4,4.1.6,4,.6,4.1.8,3.9.8,4,.9,3.9,1.1,3.7,1.1,3.7,1.2,3.7,1.4,3.7,1.4,3.5,1.6,3.6,1.6,3.4,1.6,3.3,1.8,3.2,1.8,3.2,1.9,3.2,2.1,2.9,2.2,3,2.2,2.9,2.2,2.7,2.4,2.7,2.4,2.6,2.4,2.4,2.5,2.4,2.7,2.3,2.6,2.2,2.7,2,2.8,2,2.3,1.5,2.4,1.5,2.4,1.3,2.5,1.3,2.5-1.3,2.4-1.3,2.4-1.5,2.4-1.5,2.7-2,2.7-2,2.6-2.2,2.7-2.3,2.5-2.4,2.4-2.4,2.4-2.6,2.4-2.7,2.2-2.7,2.2-2.9,2.2-3,2.1-2.9,1.9-3.2,1.8-3.2,1.8-3.2,1.6-3.3,1.6-3.4,1.6-3.6,1.3-3.5,1.4-3.7,1.3-3.7,1.1-3.7,1-3.7.9-3.9.8-4,.8-3.9.6-4.1.6-4,.4-4.1.3-4.3V394.6Zm-59.8,102V438.3H445.9l-1.5-4.9-1.3-5-1.1-5.1-1-5.1-.8-5.4-.4-5.4-.4-5.5v-7.7l3.2-.2,3-.4,3.2-.4,3.2-.4,3.2-.6,3.2-.7,3.2-.8,3.1-.8,3.2-.9,3.2-1.1,3.2-1.1,3.2-1.1,3.2-1.2,3.1-1.4,3.2-1.4,3.1-1.6v58.2h44.1l-1.6,4.8-2,4.7-1.9,4.4-2.2,4.4-2.3,4.3-2.5,4.1-2.6,4-2.8,3.8-2.9,3.6-2.9,3.4-3.2,3.2-3.2,3-3.4,3-3.4,2.7-3.7,2.5Z" transform="translate(-48.9 -132.9)"/>
  <g>
    <g>
      <path class="cls-4" d="M150.6,360a70.9,70.9,0,1,1,70.9-70.9A70.8,70.8,0,0,1,150.6,360Zm0-138.2A67.3,67.3,0,1,0,218,289.2,67.3,67.3,0,0,0,150.6,221.9Z" transform="translate(-48.9 -132.9)"/>
      <path class="cls-4" d="M125,309.5l-.5-1-4.8-7.9,1-.7,23.8-13.7V226.9h10.6l.2,65.2-.7.2L125,309.5Zm-2.2-8.2,2.9,5.3L153,291l-.2-61.6h-5.8v58Z" transform="translate(-48.9 -132.9)"/>
      <path class="cls-4" d="M111.8,273.3l-1.4-4.4-3.3,1.1,3.5,10.5,10.2-3.5-1.1-3.2-4.9,1.6A50.2,50.2,0,0,1,132,251.1v-4.3A54.6,54.6,0,0,0,111.8,273.3Z" transform="translate(-48.9 -132.9)"/>
      <path class="cls-5" d="M135.4,276.8v4.8L93.5,305.9a59.3,59.3,0,0,1,41.9-73.7v3.9h2.3v-6.7a60.9,60.9,0,0,0-48.8,59.9,57.4,57.4,0,0,0,3.4,20.1L137.7,283v-6.2Z" transform="translate(-48.9 -132.9)"/>
    </g>
    <text class="cls-6" transform="translate(17.9 54.6)">Скорость</text>
  </g>
  <g>
    <g>
      <path class="cls-4" d="M328.2,334.7H286.5V317h34.2l72.9-73H413l-9.1-10.1,8.3-8.3,27.2,27.5-27.2,27.3-8.3-8.1L413,262H400.8l-72.6,72.7Zm-38.6-3.1h37.3l72.9-72.7h20l-11.7,13.2,4.1,3.9L435,253.2,412.2,230l-4.1,3.9,11.7,13.2H394.9l-72.9,73H289.6Z" transform="translate(-48.9 -132.9)"/>
      <polygon class="cls-2" points="295.7 152.3 272 128.6 238 128.6 238 112 278.8 112 307.6 140.3 306 141.9 278 114 240.1 114 240.1 126.5 272.8 126.5 297.2 150.7 295.7 152.3"/>
      <polygon class="cls-2" points="363.3 219.7 355.8 212.2 365.4 201.3 344.9 201.3 316.4 172.7 317.9 171.4 345.7 199.2 369.8 199.2 358.7 212.2 363.3 216.6 386.9 193 363.3 169.3 358.7 173.8 369.8 186.7 350.9 186.7 326.7 162.6 328 161 351.7 184.7 365.4 184.7 355.8 173.8 363.3 166.5 389.8 193 363.3 219.7"/>
    </g>
    <text class="cls-6" transform="translate(231 54.6)">Гибкость</text>
  </g>
  <g>
    <g>
      <polygon class="cls-2" points="553.7 232.8 527.8 206.6 501.8 232.8 501.8 193.8 504.2 193.8 504.2 227 527.8 203.4 551.3 227 551.3 193.8 553.7 193.8 553.7 232.8"/>
      <path class="cls-2" d="M576.7,316.6a45.8,45.8,0,0,1-35.8-74.5l1.9,1.5a42.9,42.9,0,0,0-9.7,27.1,43.6,43.6,0,1,0,43.6-43.5,43.1,43.1,0,0,0-14.7,2.5l-.8-2.1a42.4,42.4,0,0,1,15.4-2.7,45.8,45.8,0,1,1,0,91.7Z" transform="translate(-48.9 -132.9)"/>
      <path class="cls-4" d="M556.5,250.5l2.9,8.6h9l-7.3,5.4,2.7,8.6-7.3-5.4-7.3,5.4,2.7-8.6-7.3-5.4h9l2.9-8.6Zm0-2.3a2.3,2.3,0,0,0-2.3,1.7l-2.3,6.9h-7.3a2.3,2.3,0,0,0-2.3,1.7,2,2,0,0,0,1,2.5l5.9,4.4-2.3,6.9a2.3,2.3,0,0,0,.8,2.7,2.2,2.2,0,0,0,1.5.6,2.1,2.1,0,0,0,1.3-.6l5.9-4.2,5.9,4.2a2.1,2.1,0,0,0,1.3.6,2.5,2.5,0,0,0,1.5-.6,2.3,2.3,0,0,0,.8-2.7l-2.3-6.9,5.9-4.4a2.2,2.2,0,0,0,1-2.5,2.4,2.4,0,0,0-2.3-1.7h-7.3l-2.3-6.9A2.4,2.4,0,0,0,556.5,248.2Z" transform="translate(-48.9 -132.9)"/>
      <path class="cls-4" d="M596.9,250.5l2.9,8.6h9l-7.3,5.4,2.7,8.6-7.3-5.4-7.3,5.4,2.7-8.6-7.3-5.4h9l2.9-8.6Zm0-2.3a2.4,2.4,0,0,0-2.3,1.7l-2.3,6.9H585a2.4,2.4,0,0,0-2.3,1.7,2.2,2.2,0,0,0,1,2.5l5.9,4.4-2.3,6.9a2.3,2.3,0,0,0,.8,2.7,2.5,2.5,0,0,0,1.5.6,2.1,2.1,0,0,0,1.3-.6l5.9-4.2,5.9,4.2a2.1,2.1,0,0,0,1.3.6,2.2,2.2,0,0,0,1.5-.6,2.3,2.3,0,0,0,.8-2.7l-2.3-6.9,5.9-4.4a2,2,0,0,0,1-2.5,2.3,2.3,0,0,0-2.3-1.7h-7.3l-2.3-6.9A2.3,2.3,0,0,0,596.9,248.2Z" transform="translate(-48.9 -132.9)"/>
      <path class="cls-4" d="M576.7,277.8l2.9,8.6h9l-7.3,5.4,2.7,8.6-7.3-5.4-7.3,5.4,2.7-8.6-7.3-5.4h9l2.9-8.6Zm0-2.5a2.7,2.7,0,0,0-2.3,1.7l-2.3,6.9h-7.3a2.7,2.7,0,0,0-2.3,1.7,2.5,2.5,0,0,0,1,2.7l5.9,4.2-2.3,7.1a2.4,2.4,0,0,0,.8,2.7,4.5,4.5,0,0,0,1.5.4,3.6,3.6,0,0,0,1.3-.4l5.9-4.4,5.9,4.4a3.6,3.6,0,0,0,1.3.4,4.5,4.5,0,0,0,1.5-.4,2.4,2.4,0,0,0,.8-2.7l-2.3-7.1,5.9-4.2a2.2,2.2,0,0,0,1-2.7,2.7,2.7,0,0,0-2.3-1.7h-7.3L579,277A2.7,2.7,0,0,0,576.7,275.3Z" transform="translate(-48.9 -132.9)"/>
      <path class="cls-4" d="M585.8,328.6c-1.9,0-3.6-1-5.3-1.7a5.5,5.5,0,0,0-7.6,0c-2.1,1-4.2,2.1-6.3,1.7s-4-2.3-5.5-3.8a9.6,9.6,0,0,0-3-2.7,9.3,9.3,0,0,0-4,0c-2.1.4-4.6.6-6.5-.6s-3-3.4-3.8-5.4a10.7,10.7,0,0,0-2.1-3.6,12.5,12.5,0,0,0-3.8-1.3c-2.1-.4-4.4-1-5.9-2.7s-1.5-4.2-1.7-6.5a8.4,8.4,0,0,0-.8-4,8.5,8.5,0,0,0-3-2.5c-1.7-1.1-3.8-2.5-4.6-4.8s-.2-4.4.6-6.5a16.5,16.5,0,0,0,.8-4,9.8,9.8,0,0,0-2.1-3.4c-1.3-1.7-2.9-3.6-2.9-6.1s1.5-4.2,2.9-5.9a9.8,9.8,0,0,0,2.1-3.4,16.5,16.5,0,0,0-.8-4c-.8-2.1-1.3-4.4-.6-6.5s2.9-3.6,4.6-4.8a8.5,8.5,0,0,0,3-2.5,8.4,8.4,0,0,0,.8-4c.2-2.3.2-4.6,1.7-6.5s3.8-2.3,5.9-2.7a12.5,12.5,0,0,0,3.8-1.3,10.7,10.7,0,0,0,2.1-3.6c.8-1.9,1.7-4.2,3.8-5.4s4.4-1,6.5-.6a9.3,9.3,0,0,0,4,0,9.6,9.6,0,0,0,3-2.7c1.5-1.5,3.2-3.2,5.5-3.8s4.2.8,6.3,1.7a5.5,5.5,0,0,0,7.6,0c2.1-1,4.2-2.1,6.3-1.7s4,2.3,5.5,3.8a9.6,9.6,0,0,0,3,2.7,9.3,9.3,0,0,0,4,0c2.1-.4,4.6-.6,6.5.6s3,3.4,3.8,5.4a10.7,10.7,0,0,0,2.1,3.6,12.5,12.5,0,0,0,3.8,1.3c2.1.4,4.4,1,5.9,2.7s1.5,4.2,1.7,6.5a8.4,8.4,0,0,0,.8,4,8.5,8.5,0,0,0,3,2.5c1.7,1.1,3.8,2.5,4.6,4.8s.2,4.4-.6,6.5a16.5,16.5,0,0,0-.8,4,9.8,9.8,0,0,0,2.1,3.4c1.3,1.7,2.9,3.6,2.9,5.9s-1.5,4.4-2.9,6.1a9.8,9.8,0,0,0-2.1,3.4,16.5,16.5,0,0,0,.8,4c.8,2.1,1.3,4.4.6,6.5s-2.9,3.6-4.6,4.8a8.5,8.5,0,0,0-3,2.5,8.4,8.4,0,0,0-.8,4c-.2,2.3-.2,4.6-1.7,6.5s-3.8,2.3-5.9,2.7a12.4,12.4,0,0,0-3.8,1.3,10.7,10.7,0,0,0-2.1,3.6c-.8,1.9-1.7,4.2-3.8,5.4s-4.4,1-6.5.6a9.3,9.3,0,0,0-4,0,9.6,9.6,0,0,0-3,2.7c-1.5,1.5-3.2,3.3-5.5,3.8Zm-9.1-6.7a11.7,11.7,0,0,1,5.5,1.7c1.3.8,2.9,1.5,4,1.3s2.3-1.5,3.4-2.7,2.7-2.9,4.4-3.4a9.7,9.7,0,0,1,5.7-.2c1.7.2,3.4.4,4.4-.2s1.7-2.1,2.3-3.8a12.8,12.8,0,0,1,3-4.8,12.2,12.2,0,0,1,5.1-2.1c1.7-.4,3.4-.8,4.2-1.5a9.6,9.6,0,0,0,.8-4.4c.2-1.9.2-3.8,1.1-5.5s2.7-2.7,4.4-3.8,2.9-1.7,3.2-2.9-.2-2.7-.8-4.2a12,12,0,0,1-.8-5.7,12.6,12.6,0,0,1,2.7-5c1-1.3,2.1-2.7,2.1-4s-1.1-2.5-2.1-3.8a12.6,12.6,0,0,1-2.7-5,12,12,0,0,1,.8-5.7c.6-1.5,1.1-3.2.8-4.2s-1.9-2.1-3.2-2.9-3.4-2.1-4.4-3.8-1-3.6-1.1-5.5a9.6,9.6,0,0,0-.8-4.4c-.8-.8-2.5-1.1-4.2-1.5a12.3,12.3,0,0,1-5.1-2.1,12.8,12.8,0,0,1-3-4.8c-.6-1.7-1.3-3.2-2.3-3.8s-2.7-.4-4.4-.2a9.7,9.7,0,0,1-5.7-.2c-1.7-.6-3-2.1-4.4-3.4s-2.3-2.5-3.4-2.7-2.7.6-4,1.3a9.7,9.7,0,0,1-11.1,0c-1.5-.8-3-1.5-4-1.3s-2.3,1.5-3.4,2.7-2.7,2.9-4.4,3.4a9.7,9.7,0,0,1-5.7.2c-1.7-.2-3.4-.4-4.4.2s-1.7,2.1-2.3,3.8a12.8,12.8,0,0,1-3,4.8,12.3,12.3,0,0,1-5.1,2.1c-1.7.4-3.4.8-4.2,1.5a9.6,9.6,0,0,0-.8,4.4c-.2,1.9-.2,3.8-1.1,5.5s-2.7,2.7-4.4,3.8-2.9,1.7-3.2,2.9.2,2.7.8,4.2a12,12,0,0,1,.8,5.7,12.6,12.6,0,0,1-2.7,5c-1,1.3-2.1,2.7-2.1,3.8s1.1,2.7,2.1,4a12.6,12.6,0,0,1,2.7,5,12,12,0,0,1-.8,5.7c-.6,1.5-1.1,3.2-.8,4.2s1.9,2.1,3.2,2.9,3.4,2.1,4.4,3.8,1,3.6,1.1,5.5a9.6,9.6,0,0,0,.8,4.4c.8.8,2.5,1.1,4.2,1.5a12.2,12.2,0,0,1,5.1,2.1,12.8,12.8,0,0,1,3,4.8c.6,1.7,1.3,3.3,2.3,3.8s2.7.4,4.4.2a9.7,9.7,0,0,1,5.7.2c1.7.6,3,2.1,4.4,3.4s2.3,2.5,3.4,2.7,2.7-.6,4-1.3A11.7,11.7,0,0,1,576.7,321.9Z" transform="translate(-48.9 -132.9)"/>
    </g>
    <text class="cls-6" transform="translate(444.1 54.6)">Качество</text>
  </g>
  <g>
    <g>
      <path class="cls-2" d="M919.5,263.4v86.8H902.8v-78c2.7-2.9,5.3-5.9,7.8-8.8Zm2.5-2.5H909.4c-2.9,3.4-5.9,6.9-9.1,10.1v81.7H922Z" transform="translate(-48.9 -132.9)"/>
      <path class="cls-2" d="M888.9,285.1v65.2H859V305.7a177.6,177.6,0,0,0,30-20.6Zm2.5-5.5a184.3,184.3,0,0,1-34.9,24.8v48.4h34.9Z" transform="translate(-48.9 -132.9)"/>
      <path class="cls-2" d="M845,312.5v37.7H771.4V329A182.9,182.9,0,0,0,845,312.5Zm2.5-3.8a179.8,179.8,0,0,1-78.6,17.8v26.2h78.6Z" transform="translate(-48.9 -132.9)"/>
      <path class="cls-4" d="M914.8,245.2l-2.7-19.7L892.2,228l.4,3.8,14.4-1.9a161.4,161.4,0,0,1-138.1,78.3V312a165.7,165.7,0,0,0,140.4-78.9l1.7,12.6Z" transform="translate(-48.9 -132.9)"/>
      <ellipse class="cls-7" cx="866.2" cy="239.3" rx="3.1" ry="2.7"/>
      <ellipse class="cls-7" cx="878.4" cy="239.3" rx="3.1" ry="2.7"/>
    </g>
    <text class="cls-6" transform="translate(657.1 54.6)">Эффективность</text>
  </g>
  <text class="cls-8" transform="translate(114.4 348.6)">Безопасность</text>
</svg>
