<svg id="_1" data-name="1" xmlns="http://www.w3.org/2000/svg" width="322.5mm" height="121.6mm" viewBox="0 0 914.2 344.7">
  <defs>
    <style>
@import url('https://fonts.googleapis.com/css?family=Open+Sans:300,400,600,700');
      .cls-1, .cls-7 {
        font-size: 28.1px;
      }

      .cls-1, .cls-117, .cls-119, .cls-6 {
        fill: #2387aa;
      }

      .cls-1, .cls-12, .cls-15, .cls-18, .cls-24, .cls-35, .cls-7 {
        font-family: OpenSans-Regular, Open Sans;
      }

      .cls-2 {
        letter-spacing: -0.01em;
      }

      .cls-3 {
        letter-spacing: -0.02em;
      }

      .cls-4 {
        letter-spacing: -0.01em;
      }

      .cls-5 {
        fill: #dfe6ed;
      }

      .cls-11, .cls-116, .cls-14, .cls-17, .cls-19, .cls-20, .cls-21, .cls-6 {
        fill-rule: evenodd;
      }

      .cls-11, .cls-7 {
        fill: #004669;
      }

      .cls-8 {
        letter-spacing: -0.01em;
      }

      .cls-9 {
        letter-spacing: -0.01em;
      }

      .cls-10 {
        letter-spacing: -0.02em;
      }

      .cls-12, .cls-15, .cls-18 {
        font-size: 28.08px;
      }

      .cls-12, .cls-14 {
        fill: #3c464b;
      }

      .cls-13 {
        letter-spacing: -0.01em;
      }

      .cls-15, .cls-17, .cls-24, .cls-35 {
        fill: #005f87;
      }

      .cls-16 {
        letter-spacing: -0.01em;
      }

      .cls-18, .cls-19 {
        fill: #50bed7;
      }

      .cls-20, .cls-22 {
        fill: #a5e1e1;
      }

      .cls-21 {
        fill: #41aaaa;
      }

      .cls-23 {
        fill: none;
        stroke: #41aac8;
        stroke-linejoin: round;
        stroke-width: 6px;
      }

      .cls-24 {
        font-size: 13.94px;
      }

      .cls-25 {
        letter-spacing: 0.01em;
      }

      .cls-26 {
        letter-spacing: -0.01em;
      }

      .cls-27 {
        letter-spacing: -0.01em;
      }

      .cls-28 {
        letter-spacing: 0.01em;
      }

      .cls-29 {
        letter-spacing: 0.01em;
      }

      .cls-30 {
        letter-spacing: -0.03em;
      }

      .cls-31 {
        letter-spacing: -0.04em;
      }

      .cls-32 {
        letter-spacing: -0.03em;
      }

      .cls-33 {
        letter-spacing: -0.04em;
      }

      .cls-34 {
        letter-spacing: 0.02em;
      }

      .cls-35 {
        font-size: 13.92px;
      }

      .cls-36 {
        letter-spacing: 0.01em;
      }

      .cls-37 {
        letter-spacing: 0.02em;
      }

      .cls-38 {
        letter-spacing: 0.01em;
      }

      .cls-39 {
        letter-spacing: 0.04em;
      }

      .cls-40 {
        letter-spacing: 0.03em;
      }

      .cls-41 {
        letter-spacing: 0.04em;
      }

      .cls-42 {
        letter-spacing: 0.02em;
      }

      .cls-43 {
        letter-spacing: 0.03em;
      }

      .cls-44 {
        letter-spacing: -0.01em;
      }

      .cls-45 {
        letter-spacing: -0.02em;
      }

      .cls-46 {
        letter-spacing: -0.01em;
      }

      .cls-47 {
        letter-spacing: -0.03em;
      }

      .cls-48 {
        letter-spacing: 0.02em;
      }

      .cls-49 {
        letter-spacing: -0.01em;
      }

      .cls-50 {
        letter-spacing: -0.02em;
      }

      .cls-51 {
        letter-spacing: -0.01em;
      }

      .cls-52 {
        letter-spacing: 0.01em;
      }

      .cls-53 {
        letter-spacing: -0.03em;
      }

      .cls-54 {
        letter-spacing: 0.02em;
      }

      .cls-55 {
        letter-spacing: -0.04em;
      }

      .cls-56 {
        letter-spacing: -0.03em;
      }

      .cls-57 {
        letter-spacing: -0.04em;
      }

      .cls-58 {
        letter-spacing: -0.05em;
      }

      .cls-59 {
        letter-spacing: -0.04em;
      }

      .cls-60 {
        letter-spacing: 0.01em;
      }

      .cls-61 {
        letter-spacing: 0.03em;
      }

      .cls-62 {
        letter-spacing: 0.02em;
      }

      .cls-63 {
        letter-spacing: 0.03em;
      }

      .cls-64 {
        letter-spacing: 0.08em;
      }

      .cls-65 {
        letter-spacing: 0.06em;
      }

      .cls-66 {
        letter-spacing: -0.01em;
      }

      .cls-67 {
        letter-spacing: -0.01em;
      }

      .cls-68 {
        letter-spacing: 0.02em;
      }

      .cls-69 {
        letter-spacing: 0.01em;
      }

      .cls-70 {
        letter-spacing: 0.02em;
      }

      .cls-71 {
        letter-spacing: -0.02em;
      }

      .cls-72 {
        letter-spacing: 0.03em;
      }

      .cls-73 {
        letter-spacing: 0.02em;
      }

      .cls-74 {
        letter-spacing: 0.01em;
      }

      .cls-75 {
        letter-spacing: 0.01em;
      }

      .cls-76 {
        letter-spacing: -0.02em;
      }

      .cls-77 {
        letter-spacing: 0.01em;
      }

      .cls-78 {
        letter-spacing: 0.01em;
      }

      .cls-79 {
        letter-spacing: -0.01em;
      }

      .cls-80 {
        letter-spacing: -0.03em;
      }

      .cls-81 {
        letter-spacing: 0.04em;
      }

      .cls-82 {
        letter-spacing: 0.03em;
      }

      .cls-83 {
        letter-spacing: 0em;
      }

      .cls-84 {
        letter-spacing: -0.01em;
      }

      .cls-85 {
        letter-spacing: -0.02em;
      }

      .cls-86 {
        letter-spacing: 0em;
      }

      .cls-87 {
        letter-spacing: -0.01em;
      }

      .cls-88 {
        letter-spacing: 0.03em;
      }

      .cls-89 {
        letter-spacing: 0.02em;
      }

      .cls-90 {
        letter-spacing: 0.05em;
      }

      .cls-91 {
        letter-spacing: 0.04em;
      }

      .cls-92 {
        letter-spacing: 0.03em;
      }

      .cls-93 {
        letter-spacing: 0.08em;
      }

      .cls-94 {
        letter-spacing: -0.01em;
      }

      .cls-95 {
        letter-spacing: -0.02em;
      }

      .cls-96 {
        letter-spacing: -0.01em;
      }

      .cls-97 {
        letter-spacing: -0.04em;
      }

      .cls-98 {
        letter-spacing: 0.01em;
      }

      .cls-99 {
        letter-spacing: -0.01em;
      }

      .cls-100 {
        letter-spacing: 0.01em;
      }

      .cls-101 {
        letter-spacing: 0.01em;
      }

      .cls-102 {
        letter-spacing: 0.05em;
      }

      .cls-103 {
        letter-spacing: -0.02em;
      }

      .cls-104 {
        letter-spacing: -0.04em;
      }

      .cls-105 {
        letter-spacing: -0.03em;
      }

      .cls-106 {
        letter-spacing: 0.03em;
      }

      .cls-107 {
        letter-spacing: 0.05em;
      }

      .cls-108 {
        letter-spacing: 0.03em;
      }

      .cls-109 {
        letter-spacing: 0.04em;
      }

      .cls-110 {
        letter-spacing: -0.02em;
      }

      .cls-111 {
        letter-spacing: 0.02em;
      }

      .cls-112 {
        letter-spacing: 0.03em;
      }

      .cls-113 {
        letter-spacing: 0.04em;
      }

      .cls-114 {
        letter-spacing: 0.04em;
      }

      .cls-115 {
        letter-spacing: 0.03em;
      }

      .cls-116 {
        fill: #62b01e;
        stroke: #fff;
        stroke-miterlimit: 22.93;
        stroke-width: 1.42px;
      }

      .cls-117 {
        font-size: 31.92px;
      }

      .cls-117, .cls-119 {
        font-family: OpenSans-Bold, Open Sans;
        font-weight: 700;
      }

      .cls-118 {
        letter-spacing: 0.01em;
      }

      .cls-119 {
        font-size: 31.94px;
      }
    </style>
  </defs>
  <title>Передовые технологии</title>
  <text class="cls-1" transform="translate(109.8 291.5)">Взаим<tspan class="cls-2" x="85.9" y="0">оде</tspan><tspan class="cls-3" x="133.8" y="0">йст</tspan><tspan class="cls-4" x="176.6" y="0">ви</tspan><tspan class="cls-3" x="209.9" y="0">е</tspan></text>
  <ellipse class="cls-5" cx="60.8" cy="302.5" rx="39.1" ry="39.2"/>
  <path class="cls-6" d="M164.8,431.4l-4.7,12.2a5.8,5.8,0,0,1,1.3,3.6H150a5.7,5.7,0,0,1,5.7-5.7h.9l8.2-10.2Zm-6.8-11h-1.2v5.7a21,21,0,0,1,16.5,9.6l6.6-3.8a26.8,26.8,0,0,0-22-11.5Zm23.2,13.5a26.9,26.9,0,0,1,3.6,13.4h-7.9a21.2,21.2,0,0,0-2.3-9.6l6.7-3.8Zm-26.6-13.3a26.9,26.9,0,0,0-23.3,26.7h3.4a21.1,21.1,0,0,1,19.9-21.1Z" transform="translate(-96.6 -135)"/>
  <text class="cls-7" transform="translate(663.3 199.6)">По<tspan class="cls-8" x="37.5" y="0">ддерж</tspan><tspan class="cls-3" x="121.9" y="0">ка об</tspan><tspan class="cls-9" x="190.4" y="0">ла</tspan><tspan class="cls-10" x="221.7" y="0">ка</tspan></text>
  <ellipse class="cls-5" cx="615.9" cy="209.9" rx="39.1" ry="39.2"/>
  <polygon class="cls-11" points="618.6 232 618.2 220.1 615 220.1 614.6 232 609.8 228.4 608 230.2 616.6 238.8 625.3 230.2 623.4 228.4 618.6 232"/>
  <path class="cls-11" d="M728.5,332.6c-2.2-11.8-12.4-11.4-12.4-11.4a12.9,12.9,0,0,0-12.3,8.4c-9.8,0-9.4,9-9.4,9a6.6,6.6,0,0,0-5.8,6.3,7.1,7.1,0,0,0,6.6,7.5H728c9.6-.3,9.6-9.3,9.6-9.3.4-10.2-9.1-10.6-9.1-10.6Zm-23.5,17.6h-2.2v-4.3l-2.1-2.1-1,.2a2.5,2.5,0,1,1,2.5-2.5,1.8,1.8,0,0,1-.1.7h.1l2.8,2.7v5.3Zm4.5-8.1v8.1h-2.2v-8.1a2.5,2.5,0,0,1,1.1-4.7,2.5,2.5,0,0,1,2.5,2.5,2.5,2.5,0,0,1-1.4,2.3Zm5.6,8.1H713V336.8l3.8-3.5a1.9,1.9,0,0,1-.1-.7,2.5,2.5,0,1,1,2.5,2.5l-.9-.2-3.1,2.9v12.5Zm5-5.8v5.8H718V344l1.2-3.1a2.3,2.3,0,0,1-.6-1.6,2.5,2.5,0,1,1,2.6,2.5l-1,2.6Zm6.2,2.8v3.1h-2.2v-3.1a2.5,2.5,0,0,1-1.4-2.2,2.5,2.5,0,0,1,5,0A2.5,2.5,0,0,1,726.4,347.2Z" transform="translate(-96.6 -135)"/>
  <text class="cls-12" transform="translate(636.1 28.2)">Расширяем<tspan class="cls-13" x="157.9" y="0">ос</tspan><tspan x="187.6" y="0">ть</tspan></text>
  <ellipse class="cls-5" cx="588.1" cy="40.4" rx="39.1" ry="39.2"/>
  <path class="cls-14" d="M709.2,180.2v-8.4l-6.1-.5a16.9,16.9,0,0,0-2-4.9l4-4.7-5.9-6-4.7,4.1a16.9,16.9,0,0,0-4.9-2l-.5-6.2h-8.5l-.4,6.2a17.2,17.2,0,0,0-4.9,2l-4.7-4.1-6,6,4.1,4.7a21.1,21.1,0,0,0-2,4.9l-6.1.5v8.4l6.2.5a18.4,18.4,0,0,0,2,4.8l-4.1,4.8,6,6,4.8-4.1a18.2,18.2,0,0,0,4.8,2l.4,6.1H689l.5-6.1a18.2,18.2,0,0,0,4.8-2l4.8,4.1,6-6-4.1-4.8a18.3,18.3,0,0,0,2-4.8l6.2-.5Zm-24.4,3.4a7.6,7.6,0,1,1,7.7-7.7A7.7,7.7,0,0,1,684.8,183.6Z" transform="translate(-96.6 -135)"/>
  <text class="cls-15" transform="translate(0 147.7)">М<tspan class="cls-16" x="25.4" y="0">обильност</tspan><tspan x="168.2" y="0">ь</tspan></text>
  <ellipse class="cls-5" cx="221.8" cy="158.8" rx="39.1" ry="39.2"/>
  <path class="cls-17" d="M298.3,304.3V292.8l11.4-6.9a1.9,1.9,0,0,1,2.2.3h0a1.9,1.9,0,0,1-.2,2.8l-7.1,5.1v12.8Z" transform="translate(-96.6 -135)"/>
  <polygon class="cls-17" points="208.2 173.3 208.2 181.9 199.3 178.2 199.3 169.7 208.2 173.3"/>
  <path class="cls-17" d="M328.6,271.3H309.7a2.5,2.5,0,0,0-2.5,2.5V285l2.5-1.5v-4.6h18.9v26.5H309.7V293l-2.5,1.8v17a2.5,2.5,0,0,0,2.5,2.5h18.9a2.5,2.5,0,0,0,2.6-2.5V273.8a2.5,2.5,0,0,0-2.6-2.5Zm-7.5,38.6a2,2,0,0,1-1.9,2,1.9,1.9,0,0,1-1.9-2,2.6,2.6,0,0,1,.1-.7,1.9,1.9,0,0,1,3.6,0,2.6,2.6,0,0,1,.1.7Zm-5.1-36h6.3v2.6H316Z" transform="translate(-96.6 -135)"/>
  <text class="cls-18" transform="translate(110.8 28.3)">Интерфей<tspan class="cls-16" x="138.9" y="0">с</tspan></text>
  <circle class="cls-5" cx="64.3" cy="39.2" r="39.2"/>
  <path class="cls-19" d="M177.7,161.5H143.1v19.9h34.6V161.5Zm-21,11.5h-4.2v-4.2h4.2V173Zm7.4,1.6-3.9-3.9,1.2-1.2,2.5,2.2,6.4-5.6,1.2,1.2-7.3,7.3Zm15.7-17.3a2.1,2.1,0,0,1,2.1,2.1v24.1a2.1,2.1,0,0,1-2.1,2.1H164.1v4.2h5.2v2.1H151.5v-2.1h5.2v-4.2H141a2.1,2.1,0,0,1-2.1-2.1V159.4a2.1,2.1,0,0,1,2.1-2.1Zm0,26.2H141V159.4h38.8Z" transform="translate(-96.6 -135)"/>
  <path class="cls-20" d="M604,290.2l2.9-.4h0v-.4h0a92,92,0,0,0-3.7-15.6c-.4-.9-.7-1.8-1.1-2.9s-.7-1.8-1.1-2.9h0v.2h-.2l-2.7,1.1a81.6,81.6,0,0,0-25.6-33.5l1.8-2.4,2.2,2a12.5,12.5,0,0,1,2.4,2,83,83,0,0,1,11,11.7h0l2.9-2.2.2-.2h0a.2.2,0,0,1-.2-.2A88.2,88.2,0,0,0,534.7,213a4.1,4.1,0,0,0-1.5-.2h0l-.4,3.7a27.7,27.7,0,0,0-3.9-.4,1.9,1.9,0,0,0-.9-.2l-5.7-.2h0a84.5,84.5,0,0,0-52.4,18.1A75.3,75.3,0,0,0,462,241a71,71,0,0,0-7,8.1h0l-.2.2,2.9,2.2a50.5,50.5,0,0,0-4.4,6.4,89.1,89.1,0,0,0-6.2,11.7h0a92.6,92.6,0,0,0-4,12.6c-.2.7-.4,1.6-.5,2.6a90.5,90.5,0,0,0-1.5,16.1h0a53.5,53.5,0,0,0,.4,7.7V310a3.2,3.2,0,0,1,.2,1.3l-3.5.5v.2h0a85.3,85.3,0,0,0,10.1,30.2c.9,1.8,2,3.5,3.1,5.3l3.5,4.9-2.8,2v.2h0a88,88,0,0,0,39.6,29.3c2.9,1.1,6.2,2,9.3,2.9s6.4,1.3,9.7,1.8h.2l.6-3.7v-.2h0a39.6,39.6,0,0,1-6.4-1.1c-2-.4-4-.9-6-1.5a85.5,85.5,0,0,1-27.7-13.9l1.8-2.4a82.2,82.2,0,0,0,49.3,16.5,99.1,99.1,0,0,0,10.6-.7l.4,3.3h.2a86.7,86.7,0,0,0,15.6-3.5l2.9-1.1,2.7-1.1,1.5,3.3h.2a87.1,87.1,0,0,0,14.7-7.9,25.2,25.2,0,0,0,2.8-1.8,29.9,29.9,0,0,1,2.6-1.8v-.2l-1.6-2.2a85,85,0,0,0,15.8-15.6V353l-.6-.6h0l-2.4-1.8a81.6,81.6,0,0,0,16.9-49.8,99.6,99.6,0,0,0-.6-10.6Zm-81.5-74.3h0l5.7.2a2,2,0,0,1,.9.2,25.3,25.3,0,0,1,3.7.4l-.4,3.1a88.6,88.6,0,0,0-9.9-.5,66.6,66.6,0,0,0-10.4.7l-.6-3.3c3.7-.4,7.3-.7,11-.7ZM455.2,249a93,93,0,0,1,7-7.9,73.3,73.3,0,0,1,7.9-7.1,84.9,84.9,0,0,1,41.2-17.4l.4,3.3a75.1,75.1,0,0,0-18.1,4.6c-1.3.5-2.6.9-3.7,1.5l2.4,5.7a69.2,69.2,0,0,0-15.6,9.1L473,236l-.2.2a82.2,82.2,0,0,0-11.5,11,23,23,0,0,0-3.3,4l-2.7-2.2Zm96.9,131.2-2.9,1.1a87.6,87.6,0,0,1-15.6,3.5l-.4-3.1a75.5,75.5,0,0,0,20.3-5.5l1.3,2.9-2.7,1.1Zm49.5-61a71,71,0,0,1-4,12.5l-7.2-2.9-.2.2,7.3,2.9a18.9,18.9,0,0,1-1.3,2.7c-.4.7-.7,1.6-1.3,2.6a71.1,71.1,0,0,1-8.1,12.8v.2l2.7,2.2h0A83.4,83.4,0,0,1,574.1,368h0v.2l2.2,2.7-2.6,2a25.2,25.2,0,0,0-2.7,1.8,99.3,99.3,0,0,1-14.5,7.7l-2.9-6.8h0a80.1,80.1,0,0,1-31.1,6.2,66.7,66.7,0,0,1-10.4-.7l1.3-10.1h-.2l-1.3,10.1a83,83,0,0,1-20.3-5.3l3.8-9.5h-.2l-3.8,9.3a90.7,90.7,0,0,1-18-10.2c-.2-.2-.4-.2-.4-.4h-.2l-2.2,2.9v.2h.2A82.2,82.2,0,0,0,499,382.5c2,.5,4,1.1,6,1.5a36.6,36.6,0,0,0,6.2,1.1l-.5,3.5c-3.3-.6-6.4-1.1-9.7-1.8s-6.2-1.8-9.3-2.9a89.4,89.4,0,0,1-39.4-29.1l2.9-2.2h0l7.7-6v-.2l-7.9,6c-1.3-1.6-2.4-3.3-3.5-4.9s-2.2-3.5-3.1-5.1A85.3,85.3,0,0,1,438.4,312l3.5-.5h.4v-.2a98.6,98.6,0,0,1-.6-10.4,79,79,0,0,1,6.1-30.9l5.3,2.2.2-.2-5.5-2.2a79.4,79.4,0,0,1,25.5-32.9l6,7.7h.2l-2.6-3.3a80.7,80.7,0,0,1,16.9-9.7l3.7,9h.2l-6-14.6a75.5,75.5,0,0,1,20.3-5.5l1.3,10.1h.2L512,220.3a66.7,66.7,0,0,1,10.4-.7,67.4,67.4,0,0,1,10.6.7h0l.9-6.8h.2a89,89,0,0,1,58.1,33.7l-2.4,1.6a70.9,70.9,0,0,0-10.8-11.5,12.5,12.5,0,0,0-2.4-2c-.7-.7-1.6-1.3-2.4-2h-.2v.2l-1.8,2.2A88.4,88.4,0,0,0,553.8,225l-.2.7a82,82,0,0,1,44,43.9h.2l3.3-1.3a16.4,16.4,0,0,1,.9,2.8c.4.9.7,1.8,1.1,2.9a84.6,84.6,0,0,1,3.7,15.6l-11.4,1.5-31.7,4v.4l31.7-4.2,7.7-1.1c0,.5.2.9.2,1.5s.2.9.2,1.5c.2,2.6.4,5.1.4,7.7h0a99,99,0,0,1-.7,10.4L584,308.7v.2l19.1,2.6c-.2,1.8-.6,3.7-.9,5.5Z" transform="translate(-96.6 -135)"/>
  <path class="cls-20" d="M620.9,313.6l-3.3-.4a4.9,4.9,0,0,0,.2-1.6,7,7,0,0,0,.2-1.8,72.7,72.7,0,0,0,.4-9h0c0-2.2,0-4.2-.2-6.4v-.9c-.2-1.8-.4-3.5-.5-5.1l3.3-.5h.2c-.4-2.6-.7-5-1.3-7.3s-1.1-4.9-1.8-7.3a98.3,98.3,0,0,0-16.6-32.9h-.2l-2.6,2a101.1,101.1,0,0,0-16.8-17,95,95,0,0,0-46.7-19.6l.4-3.5h0l-1.8-.2a5.7,5.7,0,0,0-1.8-.2,78.9,78.9,0,0,0-9.3-.5h0a97.4,97.4,0,0,0-19.6,2,15.9,15.9,0,0,0-3.1.7,106.8,106.8,0,0,0-15.4,4.9h0l1.3,3.1a76,76,0,0,0-7.7,3.7,98.4,98.4,0,0,0-13.9,8.8l-2-2.6v-.2l-.2.2h0a101.8,101.8,0,0,0-9.3,8.2,100.2,100.2,0,0,0-8.2,9.3,98.1,98.1,0,0,0-21.2,61.3h0c0,2.2,0,4.4.2,6.4a2.3,2.3,0,0,0,.2,1.1,25.1,25.1,0,0,0,.5,5.3v.2h0l5.5-.7A94,94,0,0,0,465,374.8l-1.3,1.5a97.3,97.3,0,0,1-12.8-11.9l-2.2-2.6-2.2-2.7h0l-.2-.4-3.7,2.9.2.2h0A100.4,100.4,0,0,0,484,393.4l.4-.7h.2l2.2-5.5,2.9,1.3,3.3,1.1a87.1,87.1,0,0,0,17.2,3.9l-.4,2.4h.2v.2h0a5.2,5.2,0,0,1,1.7.2,6.6,6.6,0,0,1,1.8.2c2.9.2,5.9.4,9,.4h0a94.9,94.9,0,0,0,36.8-7.3l1.1,3.1a97.8,97.8,0,0,1-15.2,4.9l-2.9.5a100.6,100.6,0,0,1-19.8,2h0a103.3,103.3,0,0,1-13-.9l.2-.9a109.7,109.7,0,0,1-17.4-4h-.4l-.2,1.1h0a34.8,34.8,0,0,0,4,1.3l4.2,1.1a102.7,102.7,0,0,0,22.5,2.6h0a100.6,100.6,0,0,0,19.8-2l3.1-.6a113.5,113.5,0,0,0,15.2-4.9l.2-.2h-.2l-1.3-3.1a66.7,66.7,0,0,0,6.4-2.9c2-1.1,4.2-2.2,6.2-3.5a97.5,97.5,0,0,0,26.7-23.8l2.7,2v0h0a71.3,71.3,0,0,0,4.2-5.8c1.3-2,2.6-4,3.7-6a99.3,99.3,0,0,0,11.9-35.7h-.2ZM484.6,208.9a85.8,85.8,0,0,1,15.2-4.8,15.2,15.2,0,0,1,3.1-.7,97.3,97.3,0,0,1,19.6-2h0a81.1,81.1,0,0,1,9.3.5,6,6,0,0,1,1.8.2,5.2,5.2,0,0,1,1.7.2l-.4,3.3a92.5,92.5,0,0,0-12.4-.9h0a96.8,96.8,0,0,0-32.6,5.7l-4,1.7-1.3-3.1Zm3.7,8.8-2.4-5.5,4.2-1.7a100.5,100.5,0,0,1,19.8-4.7l.7,5.8c-3.3.6-6.6,1.1-9.7,1.8a87,87,0,0,0-9.7,3.1l-2.9,1.1ZM478,215.9c2.6-1.3,5.1-2.4,7.7-3.5l2.4,5.5a80.8,80.8,0,0,0-20.1,11.5l-3.7-4.8a109.7,109.7,0,0,1,13.7-8.8Zm-10.3,13.7a88,88,0,0,0-16.5,16.5l-4.6-3.7a93,93,0,0,1,17.4-17.6l3.7,4.8Zm-23.4,9.9a80.3,80.3,0,0,1,8.4-9.3,76.3,76.3,0,0,1,9.3-8.1l2,2.6a93.7,93.7,0,0,0-17.6,17.6l-2.7-2,.6-.7ZM424,313.6l-.5-5.3v-1.1c-.2-2.2-.2-4.2-.2-6.4h0a99,99,0,0,1,20.5-60.4l2.6,2a96.2,96.2,0,0,0-12.4,21.4h0l-.2.2,5.9,2.4a46.5,46.5,0,0,0-1.8,4.4c-.5,1.6-.9,3.1-1.5,4.8a77.9,77.9,0,0,0-2.7,13.4l-3.7-.4h-.2c0,.5-.2,1.1-.2,1.7s-.2,1.1-.2,1.8c-.2,2.7-.4,5.7-.4,8.8h0a88.9,88.9,0,0,0,.7,12.1l-5.7.7Zm6-.7h0a89.2,89.2,0,0,1-.9-12.1h0c0-3.1.2-6,.4-8.8a4.9,4.9,0,0,0,.2-1.7,5.2,5.2,0,0,0,.2-1.7l3.7.4a81.9,81.9,0,0,0-.7,11.7h0a95.6,95.6,0,0,0,1.6,17.8l.5,2.7a85.9,85.9,0,0,0,4.4,13.7l-3.1,1.3a83.4,83.4,0,0,1-6.2-23.4Zm141.6,69.9a67.8,67.8,0,0,1-6.2,3.5,94.5,94.5,0,0,1-30.4,9.3l-.4-2.2c3.5-.4,6.9-1.1,10.4-1.8s6.6-1.8,9.9-3.1a94.4,94.4,0,0,0,41.5-30.7l1.8,1.3a97.7,97.7,0,0,1-26.7,23.8Zm37.5-33.7c-1.3,2.2-2.6,4.2-3.8,6.2a64.3,64.3,0,0,1-4,5.7l-4.8-3.7v.2h0a95.6,95.6,0,0,1-17.2,17.2L564,354.8l-.2.2L579.2,375a97.3,97.3,0,0,1-20.9,11.9l-9.7-23.1h-.2l9.7,23.2-3.3,1.3c-3.1,1.1-6.4,2.2-9.9,3.1a88.9,88.9,0,0,1-10.2,1.8h-.2v.2l.4,2.2a92.5,92.5,0,0,1-12.4.9h0a72.9,72.9,0,0,1-9-.6,7,7,0,0,1-1.8-.2,3.4,3.4,0,0,1-1.5-.2l.2-2.2v-.2h0a92,92,0,0,1-17.4-3.8l-3.1-1.3-3.1-1.1h0l-.2-.2v.2l-2.2,5.3A95.4,95.4,0,0,1,453.4,372a69.5,69.5,0,0,1-5.1-5.3c-1.3-1.5-2.6-2.9-3.7-4.4l2.4-2.2a14.6,14.6,0,0,1,1.5,1.8l2.2,2.6a94.4,94.4,0,0,0,13.4,12.3h0v.2l1.7-2v-.2h0a93.4,93.4,0,0,1-29.5-38.3l3.5-1.3v-.2h0a92.1,92.1,0,0,1-4.4-13.7c-.2-1.1-.5-2-.7-2.9a92.1,92.1,0,0,1-1.6-17.6h0a77.8,77.8,0,0,1,.7-11.5l21.2,2.8v-.2l-21.2-2.9a108.3,108.3,0,0,1,2.7-13.4l1.6-4.6a44.1,44.1,0,0,1,1.6-4.6h0v-.2l-4.2-1.7a101,101,0,0,1,12.3-21.1l3.5,2.7v.2l.2-.2a87.7,87.7,0,0,1,16.5-16.5l2.7,3.7.2-.2-2.7-3.7a89.5,89.5,0,0,1,23.2-12.8,57.2,57.2,0,0,1,9.5-2.9,94.1,94.1,0,0,1,9.9-2h.2l-.7-6a89.8,89.8,0,0,1,12.3-.7h0a92.7,92.7,0,0,1,12.4.7l-.4,2.4h0a93.2,93.2,0,0,1,23.6,6.2l-1.8,4.6h.2l1.8-4.4a90.9,90.9,0,0,1,20.9,12.1l-2.9,3.8h.2l2.9-3.8a99.6,99.6,0,0,1,15.4,15,81.4,81.4,0,0,1,7.9,11.2,124.9,124.9,0,0,1,6,12.1l-3.3,1.3-.2.2h0a109.5,109.5,0,0,1,4.6,13.7c.2.9.4,2,.5,2.9a92.4,92.4,0,0,1,1.8,17.8h0a87.5,87.5,0,0,1-3.7,25.1c-.5,1.6-.9,3.1-1.5,4.8a46.4,46.4,0,0,1-1.8,4.4h0v.2h.2l3.5,1.5.2-.2h0l1.6-4.6,1.7-4.9a94.2,94.2,0,0,0,3.7-26.2h0c0-2.2,0-4.2-.2-6.2v-.9c-.2-1.8-.4-3.5-.5-5.1v-.2H615l-3.5.5-1.1-6-.5-2.7a85.9,85.9,0,0,0-4.4-13.7L609,265h0a96.6,96.6,0,0,0-6.2-12.3,94.8,94.8,0,0,0-7.9-11.2A93.3,93.3,0,0,0,534.7,208l.4-2.2a97,97,0,0,1,46.5,19.6c3.1,2.6,6,5.1,9,8a93.6,93.6,0,0,1,7.9,9h0v.2l2.9-2.2a97.9,97.9,0,0,1,16.5,32.9c.7,2.2,1.3,4.8,1.8,7.1s.9,4.8,1.3,7.1l-3.5.6v.2c.2,1.6.4,3.3.5,5.1v.9c.2,2.2.2,4.2.2,6.4h0c0,2.9-.2,6-.4,9,0,.5-.2,1.1-.2,1.6s-.2,1.3-.2,1.8h0l3.5.6a100.7,100.7,0,0,1-11.7,35.3Zm3.1-48.3c0-4-.4-7.9-.7-11.7l3.5-.4.5,4.9v.9c.2,2,.2,4,.2,6.2h0a95.2,95.2,0,0,1-3.7,26.2c-.6,1.6-1.1,3.3-1.6,4.8a34.1,34.1,0,0,1-1.8,4.6l-3.1-1.3,1.6-4.4a45.7,45.7,0,0,0,1.5-4.6,88.7,88.7,0,0,0,3.7-25.3Z" transform="translate(-96.6 -135)"/>
  <path class="cls-21" d="M505.2,430.7a37,37,0,0,1-4.7-.7,36.4,36.4,0,0,1-4.8-.9,126.4,126.4,0,0,1-23.6-7.1v0l-1.1,2.4v.2h0c1.5.7,3.1,1.3,4.6,1.8l4.6,1.7a138.4,138.4,0,0,0,24.7,5.7h.2v-.2l.4-2.6v-.2Zm-.4,2.7a152,152,0,0,1-24.7-5.7l-4.6-1.7a45.3,45.3,0,0,1-4.4-1.8l.9-2.2a129.1,129.1,0,0,0,23.4,7.1,46.7,46.7,0,0,0,5,.9,39.5,39.5,0,0,0,4.6.7l-.2,2.6ZM666.7,281.6v.4l-14.3,1.8a128.4,128.4,0,0,1,1.1,16.9h0a131.5,131.5,0,0,1-26.9,79.8l2,1.6h0v.2a135.7,135.7,0,0,1-24.7,24.5l.7.9-.2.2-.7-.9a142.7,142.7,0,0,1-29.8,17.4l9,21.6h-.4l-9-21.6a48.3,48.3,0,0,1-4.6,1.8,92.1,92.1,0,0,1-14.3,4.4,141.3,141.3,0,0,1-14.8,2.9h-.2v-.2l-.4-2.6v-.2h.2a132.7,132.7,0,0,0,32.9-8.8l-3.3-8.2a131.8,131.8,0,0,1-30.6,8.1l.7,5h-.4l-2.2.4-2.4.2c-3.8.4-7.9.5-11.9.5h0a125.2,125.2,0,0,1-41.6-7c-2-.7-4.2-1.5-6.2-2.4a116,116,0,0,1-29.3-16.8L441,407l-.4-.2h0a141.3,141.3,0,0,1-18.7-17.6,119.2,119.2,0,0,1-14.5-19.8c-1.6-2.7-3.3-5.7-4.8-8.6a133.9,133.9,0,0,1-13.2-42.5l-17.4,2.2-.2-.2,17.6-2.4a134.8,134.8,0,0,1-1.1-17.4h0a148.4,148.4,0,0,1,.9-15.8h0c.2-2.2.5-4.2.9-6.4v-.4a143.1,143.1,0,0,1,8.2-28.6l-13.4-5.5v-.4l13.5,5.7a134,134,0,0,1,42.1-54.9L407.6,151l.2-.2L441,194.3a133.5,133.5,0,0,1,18.1-11.5A103.4,103.4,0,0,1,471,177l-8.8-21.6h.2l8.8,21.4c3.3-1.3,6.6-2.6,9.9-3.7a147.1,147.1,0,0,1,23.6-5.3h.2c2.4-.4,4.8-.6,7.3-.7a3.1,3.1,0,0,0,1.3-.2c2.9-.2,5.9-.2,8.8-.2h0a137,137,0,0,1,51.4,10.1l8.8-21.4h.4l-9,21.6a139.9,139.9,0,0,1,30,17.4l7.5-9.9.2.2-7.5,9.9.9.7a121.2,121.2,0,0,1,12.4,11.2,142.7,142.7,0,0,1,11.2,12.6h0v.2h0l-2,1.5a140.3,140.3,0,0,1,17,29.7l23.1-9.5v.2l-23.1,9.5.4.5c.7,2.2,1.7,4.4,2.4,6.6a120.5,120.5,0,0,1,6,25.8l14.3-2Zm-22.9-30.2c-.2-.2-.2-.4-.4-.7l-8.2,3.5a123.5,123.5,0,0,1,8.2,30.6l8.8-1.1a120.5,120.5,0,0,0-6-25.8c-.7-2.2-1.7-4.2-2.4-6.4Zm0,49.4h0a148.3,148.3,0,0,0-.9-15.8l-4.9.6A109.1,109.1,0,0,1,639,301h0a114.3,114.3,0,0,1-8.8,44.1l4.4,1.8a108.2,108.2,0,0,0,6-18.3c.2-1.3.5-2.6.7-3.9a114.5,114.5,0,0,0,2.4-24Zm-21.2,41.6-8.4-3.5.2-.2,8.4,3.5V342l2,.9a109.2,109.2,0,0,0,7.3-56.4l-14.6,1.8v-.2l14.6-2a115.1,115.1,0,0,0-5.7-22.7h0c-.5-1.7-1.1-3.3-1.8-4.9l-10.3,4.2-.2-.2,10.2-4.2a108,108,0,0,0-34.8-45.1l-1.1,1.5a110.3,110.3,0,0,1,10.8,9.5,108,108,0,0,1,10.4,12.1l-.2.2a132,132,0,0,0-10.4-11.9,105.3,105.3,0,0,0-10.8-9.5l-7.5,9.5h-.2l7.5-9.7A110.6,110.6,0,0,0,563.8,201l-4.6,11.2-.2-.2,4.6-11a102.2,102.2,0,0,0-26.9-7.3L535,205.6l-.2.2,1.5-11.7-2.9-.4a113.7,113.7,0,0,0-23.6.2,3,3,0,0,1-1.3.2l1.1,8.1h-.2l-1.1-8.1a121,121,0,0,0-22.3,5.5h0a106.9,106.9,0,0,0-29.1,16.1l-.2-.4a126.8,126.8,0,0,0-10.4,9.3,108.1,108.1,0,0,0-23.4,34.8l7.9,3.1-.2.4-7.7-3.3a102.1,102.1,0,0,0-7.3,27.1l8.4,1.1v.2l-8.4-1.1a118.8,118.8,0,0,0-.9,14.1h0a105.7,105.7,0,0,0,8.1,41l13.4-5.7.2.2-13.5,5.7a109.8,109.8,0,0,0,23.6,35.3,96.6,96.6,0,0,0,10.3,9l5.3-6.9.2.2-5.3,7a106,106,0,0,0,24.2,14.1l3.5-8.2h.2l-3.5,8.2a106,106,0,0,0,27.1,7.3l1.6-12.5.4.2-1.7,12.5a112.5,112.5,0,0,0,13.7.9,115.1,115.1,0,0,0,13.7-.9h.5l-1.6-12.5h.2l2.4,18.3.9-.2a109.1,109.1,0,0,0,27.8-7.5l-7.1-17,.2-.2,7.1,17.2a122.3,122.3,0,0,0,22.5-12.6c-1.1-1.7-2.2-3.1-3.5-4.8l2.9-2.2-7.7-9.9.2-.2,7.7,10.1a104,104,0,0,0,10.6-9.3,129.4,129.4,0,0,0,9.3-10.6l-12.1-9.3.2-.2,12.1,9.3a109,109,0,0,0,13.9-24.2h0v-.2Zm-13.7,25.1a121,121,0,0,1-9.2,10.6,126.1,126.1,0,0,1-10.6,9.3l7.3,9.5,4.2-3.3a110.7,110.7,0,0,0,9.5-9c2.9-3.1,5.9-6.4,8.4-9.7l-9.7-7.5ZM480.3,403.4a105.1,105.1,0,0,0,28.9,7.5l-.4,3.3a113.7,113.7,0,0,0,28.4,0l-.7-5.5h-.4a87.7,87.7,0,0,1-13.9.7,106.8,106.8,0,0,1-65.7-22.5l-4.9,6.4-.2.2v-.2h0a105.1,105.1,0,0,1-9.7-8.2c-3.1-2.9-5.8-6-8.6-9.2A115.1,115.1,0,0,1,406.7,316l-4.6.7a100.4,100.4,0,0,0,3.9,18.1c.5,2,1.3,4.2,2,6.2h0l2.2,6h0l.2.4H410l-4.4,1.8a126.7,126.7,0,0,0,11,20.9c.9,1.3,1.8,2.6,2.6,3.8l2.7,3.5,3.8-2.9.2-.2.2.2A121.6,121.6,0,0,0,460,404.9c2.6,1.6,5.1,2.9,7.9,4.4l7.9,3.7,4-9.9.5.4ZM401.1,300.8h0a109.7,109.7,0,0,0,1.1,15.6l4.6-.5.2-.2v.2a119.3,119.3,0,0,0,7.9,29.3l5.3-2.2-1.6-4.2h0a111.4,111.4,0,0,1,1.8-80l-5.5-2.4c-1.1,2.7-2,5.3-2.9,8.1a115.8,115.8,0,0,0-4.9,21.2h0v.2h-.2l-4.6-.7a112.3,112.3,0,0,0-1.1,15.8Zm1.1-15.9,4.6.6a113.5,113.5,0,0,1,4.8-21.1c.9-2.8,1.8-5.5,2.9-8.1l-4.2-1.8a126.3,126.3,0,0,0-5.9,18.3c-.4,1.3-.5,2.6-.9,3.9s-.9,5.5-1.3,8.2Zm224.6-21.4h0a111.4,111.4,0,0,1,5.7,22.7l3.3-.4a116.8,116.8,0,0,0-7.9-28.8l-2.9,1.3c.5,1.6,1.3,3.3,1.8,5.1Zm3.3-7.1a110.5,110.5,0,0,1,7.9,29.1l4.9-.6a121.6,121.6,0,0,0-8.2-30.6l-4.6,2Zm-5.3,1.8,9.9-4A133,133,0,0,0,618.9,227l-8.4,6.4a117.3,117.3,0,0,1,14.3,24.7Zm-14.5-24.9,8.4-6.4a113.2,113.2,0,0,0-16.3-17.4,72.5,72.5,0,0,0-6-4.9l-6.6,8.4a113.7,113.7,0,0,1,20.5,20.3Zm-20.7-20.3,6.6-8.6a89.3,89.3,0,0,0-9.7-6.6,121.5,121.5,0,0,0-17.4-9.2l-4.2,10.1,4.8,2.2a105.5,105.5,0,0,1,19.9,12.1Zm-.2.2A104.9,104.9,0,0,0,569.5,201a36.4,36.4,0,0,0-4.8-2l-.7,1.7a110.8,110.8,0,0,1,24.3,14.1l1.1-1.7Zm-25.8-12.5,7.1-17a117.1,117.1,0,0,0-19.2-6,39.8,39.8,0,0,0-4-.9c-2.7-.5-5.7-1.1-8.4-1.5l-2.4,18.3a102.3,102.3,0,0,1,26.9,7.1Zm-27.1-7.9,2.4-17.6a123.3,123.3,0,0,0-16.5-1.1h0a125.2,125.2,0,0,0-48.3,9.7l3.7,9a114.5,114.5,0,0,1,29.5-7.9h.2v.2l1.1,7.7,1.1-.2a105.2,105.2,0,0,1,24-.2,15.5,15.5,0,0,1,2.9.4Zm-80,22.3-.6-.5a110.4,110.4,0,0,1,24.7-14.3l-2.9-7.1a117.6,117.6,0,0,0-47.6,36.6l6.6,5.1a127.6,127.6,0,0,1,9.1-10.6,100.6,100.6,0,0,1,10.6-9.2Zm21.4-22,2.9,7,4.8-1.8h0a125.5,125.5,0,0,1,22.5-5.5l-1.1-7.5a112.3,112.3,0,0,0-29.1,7.9Zm-.4-.2-3.7-9.2a124.8,124.8,0,0,0-28.4,16.5l5.9,7.7a119.3,119.3,0,0,1,26.2-15Zm-26.4,15.2-5.8-7.9a133.5,133.5,0,0,0-18.1,17c-1.8,2-3.5,4.2-5.1,6.4l7.7,5.9a124.7,124.7,0,0,1,21.4-21.4ZM430,230a129.7,129.7,0,0,0-9.7,14.8c-2,3.7-3.7,7.3-5.3,11l7.7,3.3a107.5,107.5,0,0,1,13.9-24L430,230ZM414.2,301h0a118.9,118.9,0,0,1,.9-14.1l-2-.4a110.8,110.8,0,0,0,5.7,52h0c.6,1.5,1.1,2.9,1.7,4.2l1.8-.7a109.1,109.1,0,0,1-8-41ZM430,371.5l6.4-4.9a106.7,106.7,0,0,1-14.1-24.3l-7.5,3.1A119.3,119.3,0,0,0,430,371.5Zm6.4-4.8-6.2,4.9c.9,1.3,2,2.8,3.1,4,2.8,3.1,5.7,6.2,8.6,9.2s6.2,5.7,9.5,8.2l4.8-6.4c-3.5-2.8-7-5.9-10.3-9a136.5,136.5,0,0,1-9.5-11Zm-23.1-80.4,1.8.2a110.6,110.6,0,0,1,7.3-26.9l-1.8-.7a108.8,108.8,0,0,0-7.3,27.5Zm219.1,0a111.7,111.7,0,0,1-7.3,56.6l4.9,2.2a118.5,118.5,0,0,0,8.6-44.1h0a103.3,103.3,0,0,0-1.1-15.2l-1.3.2h-.5l-3.3.4Zm11-35.9a126.4,126.4,0,0,0-17-29.3l-7.1,5.5A122.5,122.5,0,0,1,635.2,254l8.2-3.5Zm-39.5-55.7-1.5,1.8a130.7,130.7,0,0,1,24,24.2l2-1.6a145.2,145.2,0,0,0-11-12.5,148,148,0,0,0-12.6-11.3l-.9-.6ZM626.2,221a130.1,130.1,0,0,0-24-24.2l-5.5,7.2,6,4.9a113.9,113.9,0,0,1,16.3,17.6l7.1-5.5Zm-85.9-51.5h-.5l-.7,5.3c2.9.4,5.7.9,8.6,1.5l3.8.7a143.2,143.2,0,0,1,19.6,6.4h.2l-.2.2-1.8,4.4a135.6,135.6,0,0,1,27.3,15.8l5.5-7.1a146.8,146.8,0,0,0-12.4-8.4c-2.7-1.6-5.5-3.1-8.4-4.6s-5.7-2.7-8.6-4l.5-1.1h-.2v-.2a129.8,129.8,0,0,0-32.6-8.8Zm-17.9-2a132.3,132.3,0,0,0-17.2,1.3l.7,6a124.8,124.8,0,0,1,16.5-1.1h0a122.9,122.9,0,0,1,16.5,1.1l.7-6a132.3,132.3,0,0,0-17.2-1.3ZM481,173.4c-3.3,1.1-6.6,2.4-9.7,3.7l2.6,6.4a123.6,123.6,0,0,1,31.8-8.6l-.9-6.8h0a145,145,0,0,0-23.8,5.3Zm-22,9.5a124.1,124.1,0,0,0-17.9,11.5l4.2,5.5a124.8,124.8,0,0,1,28.4-16.5l-2.6-6.2a91.5,91.5,0,0,0-12.1,5.7ZM441,194.6a136.4,136.4,0,0,0-24.7,24.5l5.5,4.2,5.1-6.2a134.9,134.9,0,0,1,18.3-17l-4.2-5.5Zm-24.7,24.7a126,126,0,0,0-17.4,30l6.4,2.6a114.8,114.8,0,0,1,9.3-18.3c2.2-3.5,4.6-6.8,7-10.1l-5.3-4.2Zm-25.8,59.2c-.2,1.6-.5,3.1-.7,4.8l11.9,1.5c.4-2.7.7-5.5,1.3-8.2s.6-2.6.7-3.7a127,127,0,0,1,6.2-18.9v-.2h.4l4.6,2a100.6,100.6,0,0,1,5.1-11,117.2,117.2,0,0,1,9.9-15l-7.9-5.9c-2.4,3.1-4.8,6.6-6.9,10.1a124.3,124.3,0,0,0-9.5,18.3h0v.2h-.2l-6.6-2.7a144.9,144.9,0,0,0-8.2,28.4v.4Zm-.4,22.3a131.2,131.2,0,0,0,1.1,17l10.2-1.3a148.4,148.4,0,0,1-.9-15.7h0a148.4,148.4,0,0,1,.9-15.8l-10.2-1.5a133.9,133.9,0,0,0-1.1,17.2Zm50.7,105.8,1.5-2A131.9,131.9,0,0,1,430,394c-2-2.2-4.2-4.4-6-6.6s-3.8-4.6-5.7-6.8l-2,1.5c2,2.4,3.8,4.8,5.9,7a121,121,0,0,0,18.7,17.6Zm97.4,14.5H538v.4l.5,4.8-1.8.4-2.4.2c-3.8.4-7.9.5-11.9.5h0a124.1,124.1,0,0,1-41.4-7,60.2,60.2,0,0,1-6.2-2.4,126.5,126.5,0,0,1-29.5-16.8l-.2-.2-.2.2-2.6,3.5c-4.2-3.5-8.4-7-12.3-10.8-2.2-2.2-4.2-4.4-6.2-6.6s-3.1-3.9-4.8-5.7a129.2,129.2,0,0,1-17.9-30.8l-1.1.6a127.1,127.1,0,0,1-9-33.1l10.4-1.5a124.3,124.3,0,0,0,3.7,18.3c.7,2,1.5,4.2,2,6.2h0c.7,2,1.5,3.9,2.4,5.9l-4.6,1.8v.4h0a145.4,145.4,0,0,0,11.2,21.1l2.8,3.8a23.5,23.5,0,0,0,2.6,3.5h0l.4.5,3.8-3.1a124.1,124.1,0,0,0,33.9,30.2l7.9,4.4c2.7,1.3,5.5,2.6,8.2,3.7l.2.2.2-.4,3.7-8.6a112.8,112.8,0,0,0,27.3,7.5l-.7,4a129.3,129.3,0,0,0,32.6,0,111.2,111.2,0,0,0,28-7.7l1.8,4.6a119.4,119.4,0,0,1-30.6,8.1Zm30.9-8.2a117.5,117.5,0,0,0,27.1-15.7l-2.9-3.7-.4.2a115.7,115.7,0,0,1-25.6,14.8l1.8,4.4Zm-.4,13.2a37.1,37.1,0,0,0,4.7-1.8l-.9-2.2a134,134,0,0,1-33.1,8.8l.4,2.6a132.3,132.3,0,0,0,14.8-2.9,96.9,96.9,0,0,0,14.1-4.4Zm4-4.4a129.8,129.8,0,0,0,29.3-17l-5.5-7a115.1,115.1,0,0,1-27.3,15.7l3.5,8.2Zm55.6-39.6-2-1.5-.9,1.1a113.4,113.4,0,0,1-11,12.3,139.1,139.1,0,0,1-12.3,10.8l1.6,1.8a129.9,129.9,0,0,0,24.5-24.5Zm24.9-81.5a128.4,128.4,0,0,0-1.1-16.9l-8.8,1.1a114.9,114.9,0,0,1,1.1,15.9h0A118.2,118.2,0,0,1,642,325c-.2,1.3-.5,2.6-.7,3.7a127,127,0,0,1-6,18.9l-.2.4-.2-.2-4.8-2v.2l-.4-.2h0l-4.8-2.2c-.7,1.7-1.3,3.1-2,4.6a97.6,97.6,0,0,1-8,14.1l-.2-.2a94.7,94.7,0,0,0,7.9-14.1,45.1,45.1,0,0,0,2-4.4l-1.8-.7a108,108,0,0,1-13.9,24l10.4,7.9.2.2-.2.2h0c-2.8,3.5-5.7,7-8.6,10.1s-6.4,6.2-9.7,9.2l-4.2,3.3,5.5,7.1,4.4-3.7a131.2,131.2,0,0,0,10.4-9.7,126.5,126.5,0,0,0,9.2-10.8h.2a131.5,131.5,0,0,0,26.9-79.8Z" transform="translate(-96.6 -135)"/>
  <path class="cls-20" d="M405.8,144.4a3.8,3.8,0,0,1,3.8,3.9,3.7,3.7,0,0,1-3.8,3.8,3.7,3.7,0,0,1-3.6-3.7,3.7,3.7,0,0,1,3.6-3.9Zm0,.7a3.1,3.1,0,0,0-3.1,3.2,3.2,3.2,0,0,0,3.1,3.2,3.1,3.1,0,0,0,3.1-3.2A3,3,0,0,0,405.8,145.1Z" transform="translate(-96.6 -135)"/>
  <circle class="cls-22" cx="365.6" cy="20.2" r="1"/>
  <path class="cls-20" d="M583,153a1.4,1.4,0,0,1,1.5,1.5,1.4,1.4,0,0,1-1.5,1.3,1.3,1.3,0,0,1-1.3-1.3A1.4,1.4,0,0,1,583,153Zm0,.6a1,1,0,0,0-1,1,1.2,1.2,0,0,0,1,1,1,1,0,0,0,1-1A.9.9,0,0,0,583,153.6Z" transform="translate(-96.6 -135)"/>
  <ellipse class="cls-22" cx="515.4" cy="49" rx="1" ry="0.7"/>
  <path class="cls-20" d="M667.5,239.4a1.2,1.2,0,1,1-1.1,1.2,1.2,1.2,0,0,1,1.1-1.2Zm0,.4a.8.8,0,1,0,.7.8A.8.8,0,0,0,667.5,239.8Z" transform="translate(-96.6 -135)"/>
  <ellipse class="cls-22" cx="570.1" cy="146.8" rx="1.2" ry="1.3"/>
  <ellipse class="cls-22" cx="275.4" cy="185.6" rx="1.4" ry="1.6"/>
  <ellipse class="cls-22" cx="288.6" cy="108.8" rx="1" ry="0.8"/>
  <path class="cls-20" d="M449.5,229.4a24,24,0,0,1-2,2.3l-2.6-2.5,2.2-2.3Z" transform="translate(-96.6 -135)"/>
  <path class="cls-20" d="M546.9,224.2a3.5,3.5,0,0,1,3.5-3.5,3.5,3.5,0,1,1,0,7,3.5,3.5,0,0,1-3.5-3.5Zm2.2,0h0a1.3,1.3,0,1,0,1.3-1.3,1.3,1.3,0,0,0-1.3,1.3Zm-1.3,0h0a2.6,2.6,0,1,0,2.6-2.6A2.5,2.5,0,0,0,547.8,224.2Z" transform="translate(-96.6 -135)"/>
  <polygon class="cls-20" points="482.2 125.3 484.4 126 484.4 123.6 482.2 125.3"/>
  <polygon class="cls-20" points="478.4 120.3 480.8 121 480.6 118.6 478.4 120.3"/>
  <polygon class="cls-20" points="474.3 115.9 476.7 116.4 476.3 114 474.3 115.9"/>
  <polygon class="cls-20" points="469.8 111.8 472.2 112.1 471.4 109.9 469.8 111.8"/>
  <polygon class="cls-20" points="487.8 131.3 488 128.9 485.6 130.2 487.8 131.3"/>
  <polygon class="cls-20" points="495.2 146.2 492.8 146.9 494.5 148.6 495.2 146.2"/>
  <polygon class="cls-20" points="493.5 140.2 490.9 141.1 492.8 142.3 493.5 140.2"/>
  <polygon class="cls-20" points="494.2 152.6 495.9 154.6 496.9 152.2 494.2 152.6"/>
  <polygon class="cls-20" points="488.5 135.4 490.5 136.8 490.9 134.4 488.5 135.4"/>
  <polygon class="cls-20" points="349.1 185.3 348.3 187.7 351.2 186.9 349.1 185.3"/>
  <polygon class="cls-20" points="351.1 191.8 350.5 194.4 353.4 193.2 351.1 191.8"/>
  <polygon class="cls-20" points="360.6 212.9 363 211.2 360.6 210.2 360.6 212.9"/>
  <polygon class="cls-20" points="353.4 200.9 356.2 199.6 353.8 198.2 353.4 200.9"/>
  <polygon class="cls-20" points="356.7 207.1 359.1 205.5 356.9 204.2 356.7 207.1"/>
  <path class="cls-20" d="M437,354.9a2.6,2.6,0,0,1,2.6-2.7,2.8,2.8,0,0,1,2.7,2.7,2.6,2.6,0,0,1-2.7,2.6,2.5,2.5,0,0,1-2.6-2.6Zm2,0h0c0,.4.2.7.5.7a.8.8,0,0,0,.7-.7.8.8,0,0,0-.7-.7c-.4,0-.5.4-.5.7Zm-1.1,0h0a1.6,1.6,0,1,0,1.6-1.6A1.6,1.6,0,0,0,437.9,354.9Z" transform="translate(-96.6 -135)"/>
  <path class="cls-20" d="M523.4,386.1a2.9,2.9,0,0,1,2.6,2.7h-.6a2.3,2.3,0,0,0-2.1-2v-.7Zm2.6,3.1a2.9,2.9,0,0,1-2.6,2.7v-.7a2.3,2.3,0,0,0,2.1-2Zm-3.2,2.7a3.1,3.1,0,0,1-2.8-2.7h.8a2.2,2.2,0,0,0,2.1,2v.7Zm-2.8-3.1a3.1,3.1,0,0,1,2.8-2.7v.7a2.2,2.2,0,0,0-2.1,2Z" transform="translate(-96.6 -135)"/>
  <path class="cls-20" d="M523.4,387.5c.5,0,1,.5,1.2,1.3h-.3c-.2-.5-.5-.9-.8-.9v-.4Zm1.2,1.6c-.2.7-.7,1.3-1.2,1.3V390c.3,0,.7-.4.8-.9Zm-1.7,1.3c-.5,0-1-.5-1.2-1.3h.3c.2.5.5.9.9.9v.4Zm-1.2-1.6c.2-.7.7-1.3,1.2-1.3v.4c-.3,0-.7.4-.9.9Z" transform="translate(-96.6 -135)"/>
  <path class="cls-20" d="M613.1,363.3a1.2,1.2,0,1,1,1.2,1.2,1.2,1.2,0,0,1-1.2-1.2Zm.7,0h0a.5.5,0,1,0,.5-.5A.5.5,0,0,0,613.8,363.3Z" transform="translate(-96.6 -135)"/>
  <circle class="cls-23" cx="427.2" cy="164.8" r="108.7"/>
  <text class="cls-24" transform="translate(124 51.3)">П<tspan class="cls-25" x="10.2" y="0">р</tspan><tspan x="18.8" y="0">о</tspan><tspan class="cls-26" x="27.3" y="0">ст</tspan><tspan x="40.1" y="0">ота</tspan><tspan class="cls-27" x="62.8" y="0"> </tspan><tspan class="cls-28" x="66.3" y="0">и</tspan><tspan x="75.3" y="0"> </tspan><tspan class="cls-29" x="78.9" y="0">у</tspan><tspan class="cls-30" x="86.1" y="0">доб</tspan><tspan class="cls-31" x="109.5" y="0">ст</tspan><tspan class="cls-32" x="121.6" y="0">в</tspan><tspan class="cls-33" x="129.2" y="0">о </tspan><tspan class="cls-34" x="140.2" y="0">для </tspan></text>
  <text class="cls-35" transform="translate(124 69.8)">э<tspan class="cls-36" x="6.9" y="0">фф</tspan><tspan class="cls-37" x="27" y="0">е</tspan><tspan class="cls-38" x="35.1" y="0">кт</tspan><tspan class="cls-37" x="49.1" y="0">и</tspan><tspan class="cls-38" x="58.1" y="0">вного</tspan><tspan x="98.2" y="0"> </tspan><tspan class="cls-39" x="101.8" y="0">в</tspan><tspan class="cls-40" x="110.3" y="0">з</tspan><tspan class="cls-41" x="117.4" y="0">аи</tspan><tspan class="cls-40" x="135" y="0">модей</tspan><tspan class="cls-42" x="180" y="0">ст</tspan><tspan class="cls-43" x="193.6" y="0">ви</tspan><tspan class="cls-42" x="211.1" y="0">я</tspan></text>
  <text class="cls-35" transform="translate(4.1 172.5)">Уп<tspan class="cls-44" x="17.3" y="0">р</tspan><tspan class="cls-45" x="25.7" y="0">ав</tspan><tspan class="cls-46" x="40.8" y="0">лени</tspan><tspan class="cls-45" x="73.8" y="0">е</tspan><tspan class="cls-47" x="81.3" y="0"> </tspan><tspan class="cls-48" x="84.5" y="0">оп</tspan><tspan class="cls-38" x="102.2" y="0">ер</tspan><tspan x="118.8" y="0">аци</tspan><tspan class="cls-49" x="144.1" y="0">я</tspan><tspan class="cls-50" x="151.6" y="0">ми</tspan><tspan class="cls-47" x="170.2" y="0"> </tspan></text>
  <text class="cls-35" transform="translate(4.1 190.9)">отов<tspan class="cls-51" x="31.2" y="0">сю</tspan><tspan class="cls-52" x="49.1" y="0">ду</tspan><tspan class="cls-53" x="64.4" y="0">, </tspan><tspan class="cls-54" x="70.6" y="0">с лю</tspan><tspan class="cls-43" x="101.6" y="0">б</tspan><tspan class="cls-42" x="110.3" y="0">ого </tspan></text>
  <text class="cls-35" transform="translate(4.1 209.4)">у<tspan class="cls-55" x="7" y="0">ст</tspan><tspan class="cls-56" x="19" y="0">р</tspan><tspan class="cls-57" x="27.2" y="0">ой</tspan><tspan class="cls-58" x="43.4" y="0">ст</tspan><tspan class="cls-59" x="55.2" y="0">ва</tspan></text>
  <text class="cls-35" transform="translate(119.4 312.6)">Эф<tspan class="cls-60" x="18.7" y="0">фективно</tspan><tspan x="85.3" y="0">е </tspan><tspan class="cls-61" x="96.7" y="0">взаи</tspan><tspan class="cls-62" x="129.5" y="0">мод</tspan><tspan class="cls-63" x="156.8" y="0">е</tspan><tspan class="cls-42" x="165" y="0">йствие</tspan><tspan class="cls-38" x="213" y="0"> </tspan><tspan class="cls-64" x="216.7" y="0">и</tspan><tspan class="cls-65" x="226.6" y="0"> </tspan></text>
  <text class="cls-24" transform="translate(119.4 331.1)">о<tspan class="cls-66" x="8.4" y="0">бмен </tspan><tspan x="46.6" y="0">данными</tspan><tspan class="cls-67" x="109.8" y="0"> </tspan><tspan class="cls-68" x="113.3" y="0">ме</tspan><tspan class="cls-69" x="131.9" y="0">жд</tspan><tspan class="cls-70" x="150.4" y="0">у</tspan><tspan class="cls-71" x="157.7" y="0"> </tspan><tspan class="cls-72" x="161" y="0">си</tspan><tspan class="cls-73" x="177.4" y="0">стема</tspan><tspan class="cls-74" x="217.5" y="0">ми</tspan></text>
  <text class="cls-24" transform="translate(649.1 62.1)">Подд<tspan class="cls-75" x="34.5" y="0">е</tspan><tspan x="42.5" y="0">ржк</tspan><tspan class="cls-26" x="68.5" y="0">а</tspan><tspan class="cls-76" x="76.1" y="0"> </tspan><tspan class="cls-77" x="79.5" y="0">ра</tspan><tspan x="96.1" y="0">сш</tspan><tspan class="cls-78" x="115.2" y="0">и</tspan><tspan x="124.1" y="0">р</tspan><tspan class="cls-79" x="132.7" y="0">ени</tspan><tspan class="cls-76" x="157.7" y="0">я</tspan><tspan class="cls-80" x="165.2" y="0"> </tspan><tspan class="cls-81" x="168.4" y="0">ф</tspan><tspan class="cls-82" x="179" y="0">у</tspan><tspan class="cls-83" x="186.4" y="0">нк</tspan><tspan class="cls-84" x="202.5" y="0">ц</tspan><tspan class="cls-85" x="211" y="0">ий</tspan><tspan class="cls-80" x="228.2" y="0">, </tspan></text>
  <text class="cls-35" transform="translate(649.1 80.6)">об<tspan class="cls-44" x="16.7" y="0">нов</tspan><tspan class="cls-86" x="41.4" y="0">ле</tspan><tspan class="cls-87" x="57.2" y="0">ний</tspan><tspan class="cls-50" x="83.3" y="0"> </tspan><tspan class="cls-88" x="86.6" y="0">и</tspan><tspan class="cls-89" x="95.9" y="0"> </tspan><tspan class="cls-43" x="99.8" y="0">пр</tspan><tspan class="cls-62" x="117.7" y="0">остота </tspan><tspan class="cls-90" x="167.2" y="0">внедре</tspan><tspan class="cls-91" x="220" y="0">ния</tspan><tspan class="cls-92" x="246.9" y="0"> </tspan><tspan class="cls-93" x="250.8" y="0">с </tspan></text>
  <text class="cls-35" transform="translate(649.1 99.1)">ми<tspan class="cls-94" x="19.1" y="0">ними</tspan><tspan class="cls-95" x="55.2" y="0">з</tspan><tspan class="cls-96" x="61.6" y="0">а</tspan><tspan class="cls-50" x="69.3" y="0">ци</tspan><tspan class="cls-47" x="86.3" y="0">ей</tspan><tspan class="cls-97" x="102.1" y="0"> </tspan></text>
  <text class="cls-35" transform="translate(677.8 221.8)">Гл<tspan class="cls-98" x="15.2" y="0">о</tspan><tspan x="23.7" y="0">бали</tspan><tspan class="cls-99" x="56.5" y="0">з</tspan><tspan x="63.1" y="0">ац</tspan><tspan class="cls-87" x="79.6" y="0">ия</tspan><tspan class="cls-50" x="95.9" y="0"> </tspan><tspan class="cls-88" x="99.2" y="0">п</tspan><tspan class="cls-89" x="108.3" y="0">р</tspan><tspan class="cls-100" x="117.1" y="0">о</tspan><tspan class="cls-86" x="125.6" y="0">з</tspan><tspan class="cls-101" x="132.3" y="0">рач</tspan><tspan x="157.4" y="0">ност</tspan><tspan class="cls-101" x="187.8" y="0">и</tspan><tspan x="196.7" y="0"> </tspan><tspan class="cls-102" x="200.3" y="0">и</tspan><tspan class="cls-91" x="209.8" y="0"> </tspan></text>
  <text class="cls-35" transform="translate(677.8 240.3)">дост<tspan class="cls-98" x="29.5" y="0">у</tspan><tspan class="cls-103" x="36.6" y="0">п</tspan><tspan class="cls-47" x="45" y="0">но</tspan><tspan class="cls-104" x="61.4" y="0">ст</tspan><tspan class="cls-105" x="73.5" y="0">и</tspan><tspan class="cls-97" x="82" y="0"> </tspan><tspan class="cls-106" x="85.1" y="0">данных</tspan><tspan class="cls-62" x="139.3" y="0"> </tspan><tspan class="cls-107" x="143.2" y="0">р</tspan><tspan class="cls-91" x="152.4" y="0">еа</tspan><tspan class="cls-108" x="168.9" y="0">л</tspan><tspan class="cls-109" x="177.2" y="0">ь</tspan><tspan class="cls-92" x="185.9" y="0">ного </tspan></text>
  <text class="cls-35" transform="translate(677.8 258.8)">вре<tspan class="cls-94" x="24.3" y="0">м</tspan><tspan x="34.3" y="0">е</tspan><tspan class="cls-87" x="42.2" y="0">ни</tspan><tspan class="cls-110" x="59.6" y="0"> </tspan><tspan class="cls-111" x="62.9" y="0">для</tspan><tspan class="cls-38" x="87.5" y="0"> </tspan><tspan class="cls-112" x="91.2" y="0">в</tspan><tspan class="cls-62" x="99.5" y="0">сей</tspan><tspan class="cls-38" x="123.5" y="0"> </tspan><tspan class="cls-113" x="127.2" y="0">ор</tspan><tspan class="cls-108" x="145.2" y="0">г</tspan><tspan class="cls-114" x="151.5" y="0">а</tspan><tspan class="cls-92" x="159.8" y="0">ни</tspan><tspan class="cls-89" x="178.2" y="0">з</tspan><tspan class="cls-115" x="185.1" y="0">ац</tspan><tspan class="cls-89" x="202.4" y="0">ии</tspan></text>
  <path class="cls-116" d="M722.8,368.6l-16.7,8.3c10.2,4,18.4,10.1,26,17.9,7.4-10.5,22.5-26.6,34.8-30.6-3.5-7.5-1.8-11.1-1.1-18.8-16.7,9.3-25.5,19.8-34.6,36.3Z" transform="translate(-96.6 -135)"/>
  <path class="cls-116" d="M696.5,194.9l-16.7,8.3c10.2,4,18.4,10.1,26,17.9,7.4-10.5,22.5-26.6,34.8-30.6-3.5-7.5-1.8-11.1-1.1-18.8-16.7,9.3-25.5,19.8-34.6,36.3Z" transform="translate(-96.6 -135)"/>
  <path class="cls-116" d="M173.9,192.1l-16.7,8.3c10.2,4,18.4,10.1,26,17.9,7.4-10.5,22.5-26.6,34.8-30.6-3.5-7.5-1.8-11.1-1.1-18.8-16.7,9.3-25.5,19.8-34.6,36.3Z" transform="translate(-96.6 -135)"/>
  <path class="cls-116" d="M329.5,314.7l-16.7,8.3c10.2,4,18.4,10.1,26,17.9,7.4-10.5,22.5-26.6,34.8-30.6-3.5-7.5-1.8-11.1-1.1-18.8C355.8,301,347,311.4,337.9,328Z" transform="translate(-96.6 -135)"/>
  <path class="cls-116" d="M168.3,452.3l-16.7,8.3c10.2,4,18.4,10.1,26,17.9,7.4-10.5,22.5-26.6,34.8-30.6-3.5-7.5-1.8-11.1-1.1-18.8-16.7,9.3-25.5,19.8-34.6,36.3Z" transform="translate(-96.6 -135)"/>
  <text class="cls-117" transform="translate(352.7 158.2)">SIEME<tspan class="cls-118" x="94" y="0">NS</tspan></text>
  <text class="cls-119" transform="translate(336.2 196.6)">OPCENTER</text>
</svg>
